<svg viewBox="0 0 1417 1417" xmlns="http://www.w3.org/2000/svg">
  <defs>
    <radialGradient id="grad" cx="708.5" cy="708.5" r="708.5" gradientUnits="userSpaceOnUse">
      <stop offset="0%" style="stop-color:#0d1b26;stop-opacity:1" />
      <stop offset="20%" style="stop-color:#2c3e50;stop-opacity:1" />
      <stop offset="100%" style="stop-color:#0d1b26;stop-opacity:1" />
    </radialGradient>
  </defs>
  <rect width="100%" height="100%" fill="url(#grad)"/>
  <g transform="translate(708.5, 708.5)">
    <path d="M-137.9,11.1c-59.7,0-108.2,48.5-108.2,108.2c0,59.7,48.5,108.2,108.2,108.2s108.2-48.5,108.2-108.2C-29.7,59.6-78.2,11.1-137.9,11.1z M-132.1,171.2l-8.7-8.7c-34.6-34.6-34.6-90.8,0-125.5c34.6-34.6,90.8-34.6,125.5,0l8.7,8.7c34.6,34.6,34.6,90.8,0,125.5C-41.4,205.8-97.6,205.8-132.1,171.2z" fill="#fff"/>
    <circle cx="0" cy="0" r="508.7" fill="none" stroke="#f8c32e" stroke-width="32"/>
  </g>
</svg>
